<svg class="cross-icon" viewBox="0 0 20 20" xmlns="http://www.w3.org/2000/svg">
	<path d="M13.3 10.0006L19.4873 3.81337C20.1709 3.12974 20.1709 2.02141 19.4873 1.33885L18.6624 0.514004C17.9786 -0.169839 16.8703 -0.169839 16.1877 0.514004L10.0006 6.70106L3.81337 0.512722C3.12974 -0.170907 2.02141 -0.170907 1.33885 0.512722L0.512722 1.33756C-0.170907 2.02141 -0.170907 3.12974 0.512722 3.8123L6.70106 10.0006L0.514004 16.1877C-0.169839 16.8715 -0.169839 17.9799 0.514004 18.6624L1.33885 19.4873C2.02247 20.1709 3.13081 20.1709 3.81337 19.4873L10.0006 13.3L16.1877 19.4873C16.8715 20.1709 17.9799 20.1709 18.6624 19.4873L19.4873 18.6624C20.1709 17.9786 20.1709 16.8703 19.4873 16.1877L13.3 10.0006Z"/>
</svg>
