<svg class="menu-icon" viewBox="0 0 50 50" xmlns="http://www.w3.org/2000/svg">
	<path d="M45.3987 6.27588H4.60127C2.06416 6.27588 0 8.33994 0 10.8803C0 13.4174 2.06416 15.4815 4.60127 15.4815H45.3987C47.9358 15.4815 50 13.4174 50 10.8803C50 8.33994 47.9358 6.27588 45.3987 6.27588Z"/>
	<path d="M45.3987 20.3972H4.60127C2.06416 20.3972 0 22.4613 0 25.0016C0 27.5387 2.06416 29.6029 4.60127 29.6029H45.3987C47.9358 29.6029 50 27.5387 50 25.0016C50 22.4613 47.9358 20.3972 45.3987 20.3972Z"/>
	<path d="M45.3987 34.5183H4.60127C2.06416 34.5183 0 36.5825 0 39.1227C0 41.6598 2.06416 43.724 4.60127 43.724H45.3987C47.9358 43.724 50 41.6598 50 39.1227C50 36.5825 47.9358 34.5183 45.3987 34.5183Z"/>
</svg>
