<svg class="moon-icon" viewBox="0 0 33 36" xmlns="http://www.w3.org/2000/svg">
	<path d="M30.9149 26.3868C25.28 26.6808 19.6969 23.8739 16.7682 18.6791C13.8692 13.543 14.3437 7.45911 17.48 2.91086C17.5097 2.86678 17.5393 2.82269 17.569 2.77861C18.4513 1.52214 17.4059 -0.182527 15.8711 0.0158613C15.8563 0.0158613 15.8414 0.023209 15.8266 0.023209C13.6764 0.30977 11.5337 0.985761 9.51695 2.07322C0.649332 6.84925 -2.62783 18.0104 2.28791 26.7175C7.21107 35.4392 18.3697 38.5694 27.2151 33.7125C29.3431 32.5442 31.1373 31.0233 32.5757 29.2672C32.5831 29.2525 32.598 29.2451 32.6054 29.2304C33.5767 28.0327 32.635 26.2693 31.0854 26.3722C31.0261 26.3795 30.9742 26.3795 30.9149 26.3868ZM25.7174 31.0747C18.3549 35.1159 9.06467 32.5075 4.97193 25.248C0.879177 17.9884 3.5187 8.82578 10.8812 4.78453C11.7413 4.31428 12.631 3.9322 13.5281 3.63829C11.0962 8.73026 11.0962 14.8583 14.0842 20.1486C17.1093 25.5051 22.4921 28.7528 28.2383 29.3333C27.4746 29.9872 26.6368 30.5677 25.7174 31.0747Z" />
</svg>
