<svg version="1" xmlns="http://www.w3.org/2000/svg" width="1365.333" height="1365.333" viewBox="0 0 1024.000000 1024.000000"><path d="M505.9 3.4c-2.2 1.5-4.6 4.5-6.1 7.8-2.2 4.7-23.6 61.4-24.3 64.2-.1.6-.9 2.7-1.7 4.6-2.8 6.6-3.2 7.5-3.3 8.5-.1.5-.6 2.1-1.2 3.5s-2.9 7.7-5.3 14c-2.3 6.3-5.7 15.3-7.5 20-1.8 4.7-3.6 9.6-4 11-.3 1.4-1.2 3.8-2 5.5-1.6 3.7-19.6 52.4-20 53.9-.1.6-.8 2.4-1.4 4.1-.7 1.6-2.5 6.4-4.1 10.5-1.5 4.1-5.1 13.8-8 21.5-2.8 7.7-5.3 14.4-5.4 15-.2.5-.8 2.3-1.5 4-.7 1.6-3.3 8.6-5.8 15.5-2.4 6.9-4.9 13.4-5.4 14.5-1.7 3.8-18 48-18.2 49.5-.1.8-.5 2-.9 2.5-.6 1.1-7.1 18.3-37.8 101-9.8 26.4-19.7 52.8-21.9 58.8-3.6 9.3-4.1 11.8-4.1 18.8s.5 9.5 3.6 17.3c1.9 5 4 10.4 4.6 12.1.5 1.6 1.4 3.9 1.9 5 .4 1.1 11.2 30.1 23.9 64.5 12.8 34.4 23.6 63.1 24.2 63.7.6.7.8 1.3.5 1.3-.6 0 2.1 7.5 5.4 15.5.6 1.6 1.3 3.5 1.4 4 .3 1.3 32.7 88.6 34.6 93 .6 1.6 1.3 3.4 1.4 4 .5 2 10.5 28.7 11.2 29.8.4.7.8 1.7.9 2.3.2 1.5 21.4 58.6 22.2 59.9.4.5.7 1.5.8 2.1.1.6 6.3 17.5 13.7 37.5 7.4 20 17.4 46.8 22.1 59.5 10.7 28.7 11.7 31.1 15.6 35.1 6.5 6.6 14.9 4.9 20-4 1.6-2.8 5-10.7 7.5-17.6 2.6-6.9 6.7-18 9.2-24.6 2.5-6.6 4.6-12.5 4.8-13 .1-.6.8-2.4 1.4-4 1.7-4.1 5.8-14.9 5.9-15.5 0-.3.6-1.9 1.2-3.5.6-1.7 1.7-4.6 2.4-6.5 5.8-15.6 40.9-110.1 43.1-116 3-7.7 16.7-44.6 17-45.5.1-.6.7-2.1 1.2-3.5 1.2-2.9 24.5-65.6 26.6-71.5.8-2.2 3.8-10.2 6.7-17.8 2.8-7.7 5.3-14.4 5.4-15 .1-.7.4-1.7.8-2.2.8-1.4 15.9-42.2 16.2-43.7.1-.7.7-2.2 1.2-3.3.6-1.1 3-7.4 5.4-14 2.3-6.6 4.8-13.4 5.5-15 .7-1.7 2.1-5.5 3.1-8.5 1.1-3 2.2-5.7 2.5-6 .3-.3.9-1.6 1.2-3 .7-3.1 8.8-25 13-35 2.8-6.7 3.2-8.6 3.2-17.5v-10l-8.7-23.1c-4.9-12.7-8.8-23.6-8.8-24.3 0-.6-.4-1.1-.8-1.1-.5 0-.9-.6-.9-1.3 0-1-18.8-52.4-22.4-61.2-.7-1.7-1.3-3.5-1.4-4-.4-1.5-38.4-103.7-39.4-106-.5-1.1-3-7.6-5.4-14.5-2.5-6.9-5.1-13.9-5.8-15.5-.7-1.7-1.3-3.5-1.5-4-.3-1.5-9.2-25.7-10.3-28-.5-1.1-9.1-24.3-19.1-51.5-10.1-27.2-18.9-51-19.6-52.8-.7-1.8-1.4-3.6-1.5-4-.1-.4-1.3-3.6-2.7-7.2-1.3-3.6-5.3-14.2-8.7-23.5-3.5-9.4-6.9-18.4-7.6-20-.7-1.7-1.3-3.2-1.4-3.5-.5-2.3-3-8.9-3.8-10.5-.6-1.1-1.2-2.7-1.4-3.5-.4-2.8-10-27.5-12.7-32.7-4.4-8.8-11.8-11.5-18.7-6.9zM519 66.9c2.8 7.5 15.2 40.6 27.6 73.6 12.3 33 22.7 60.7 23 61.5.4.8.8 1.9.9 2.5.5 2 9.6 25.9 10.3 26.9.3.6.7 1.6.8 2.3.2 1.4 18.4 50.4 19.2 51.8.4.5.7 1.4.8 2 .2 1.4 42.5 114.8 43.2 116 .4.5.7 1.5.8 2.1.2 1.1 9.4 25.8 11.7 31.4.5 1.4 1.1 3 1.2 3.6.2.5 4.8 13.1 10.3 28 12.3 33.2 14.1 38.9 14 43.8 0 5.7-.9 8.2-47.5 133-6.3 17-11.6 31.4-11.8 32-.1.6-.7 2.4-1.4 4.1-2.9 6.8-18.2 48.1-18.4 49.5-.2.8-.8 2.5-1.5 3.7-.7 1.2-1.3 3-1.5 4-.1 1-.6 2.3-.9 2.9-.8 1.2-20.7 54.5-41.5 110.9-6.8 18.7-12.9 34.9-13.4 36-1.1 2.4-9 23.6-9.4 25-.1.5-.5 1.7-.8 2.5-1.2 2.7-11.7 30.3-16.3 42.6-2.8 7.2-5.1 12.1-5.9 12.1-.9 0-3.4-5.5-6.6-14.1-2.8-7.8-5.9-15.5-6.7-17.1-.9-1.7-1.7-3.5-1.8-4.1-.3-1.5-36.5-98.7-37.2-99.9-.4-.6-.7-1.5-.8-2.2-.4-2.2-24.7-66.8-25.7-68-.5-.7-.7-1.3-.4-1.3.6 0-2.1-7.5-5.4-15.5-.6-1.7-1.3-3.5-1.4-4-.3-1-28.8-77.8-30.4-81.7-.6-1.3-3.5-9.3-6.7-17.8-3.1-8.5-6.1-16.6-6.7-18-.6-1.4-1.1-3-1.3-3.5-.1-.6-.8-2.4-1.5-4-.6-1.7-1.3-3.5-1.5-4-.7-3.2-6.7-18.1-7.6-19.2-.6-.7-.8-1.3-.4-1.3.5 0-1.7-6.4-4.3-12.5-.5-1.1-2.5-6.7-4.6-12.5-2-5.8-4.3-11.9-5-13.5-5.2-12.2-14.6-40.7-14.6-44.5-.1-3.6 3.9-15.9 13.1-40.3 2.9-7.7 5.3-14.4 5.5-15 .1-.7.9-2.8 1.7-4.7.8-1.9 6.1-16.1 11.8-31.5 5.6-15.4 10.8-29.4 11.5-31 .7-1.7 3.4-8.9 6-16 2.6-7.2 5.1-13.9 5.6-15 1.1-2.5 19-50.6 19.3-52 .2-.6.8-2.1 1.3-3.5.6-1.4 9.9-26.4 20.8-55.5 24.3-65 23.3-62.5 23.4-63 0-.3.8-2.2 1.6-4.2.9-2.1 1.7-4.4 1.8-5.3.2-.8.6-2 1-2.6.7-1.1 13.7-36 14.2-37.9.1-.6.8-2.4 1.4-4 .7-1.7 4.2-10.9 7.8-20.5 3.5-9.6 8.8-23.6 11.8-31 2.9-7.4 6.3-16.2 7.5-19.6 1.2-3.3 2.7-6.1 3.5-6.1.7 0 3.4 5.6 6.5 13.6z"/><path d="M509 180.7c-6.5.6-15.5 3.5-22.5 7.2-8.5 4.4-20.8 16.1-25.8 24.6-3.6 6.3-9.1 20.4-8.2 21.3.2.3.1 1-.4 1.6-.5.6-1.2 3-1.4 5.3-.3 2.3-.8 4.6-1.1 5.2-.4.5-.9 4.3-1.2 8.3-.3 4-.9 10.2-1.2 13.8-1.4 16.8-.2 54.7 2.3 72.5.3 2.2.8 5.8 1 8 .3 2.2.7 5.1.9 6.5.2 1.4.7 4.9 1.1 7.8.4 2.9 1.2 5.5 1.6 5.8.5.3.7.9.4 1.4-.5.9 4.2 23.6 5.3 25.5.3.5.7 1.8.8 3 .1 1.1 1.6 7.1 3.3 13.3 1.7 6.2 2.9 11.6 2.7 12-.2.4-2.1 1.6-4.2 2.7s-4.5 2.6-5.4 3.3c-.8.7-5.5 4.2-10.5 7.8-11.6 8.3-30.6 25.1-37 32.7-23.4 27.8-33.3 45.5-38.1 68.2-1.9 8.7-2.3 12.5-2.3 22.3.1 6.1.5 11.4 1 11.8.5.3.7.9.4 1.4-1 1.7 4.4 16 8.6 22.5 6 9.6 16.5 18.8 27.5 24.1 5.1 2.5 10.3 4.6 11.6 4.8 1.3.1 2.8.5 3.4.9.6.3 2.2.8 3.7 1.1 1.5.2 3.1.7 3.6 1.1 2.8 1.6 28.5 2.4 41.1 1.2 14-1.3 22.2-2.6 23.6-3.8.6-.5 1.3-.7 1.6-.4.8.8 17.7-3.9 24.8-6.9 10.2-4.3 9.6-4.4 11.5 1.6 1 2.9 2 5.7 2.4 6.3.3.5.7 1.7.8 2.6.1.9.8 2.9 1.4 4.5 1.4 3.4 1.3 2.9 2.3 7.4.5 1.9 1.3 4.6 1.9 6 .5 1.4 1.1 3.2 1.3 4 .3 1.5 2 7.8 5.5 20.2 1 3.6 1.9 7.5 1.9 8.6 0 1.2.5 2.4 1 2.7.6.4.8 1 .6 1.4-.3.4-.1 2.5.4 4.7.5 2.1 1.1 5.5 1.5 7.4.3 1.9 1 5.7 1.5 8.5 2.5 12.5 3 19.6 3.2 41.1 0 10-.2 18.6-.6 19.3-.4.6-.6 2.1-.5 3.4.2 1.2 0 2.7-.3 3.2-.4.6-.9 2.9-1.1 5-1.4 12-11 32.4-19.2 40.8-8.9 9.1-21.6 12.3-30.5 7.7-6.8-3.5-8.5-8-6.2-16.5 2.1-7.3 1.1-11.3-4-16-3.5-3.4-5.7-4.5-10.2-5.5-5.3-1.1-11.6-.7-14.1.8-.5.4-1.6.7-2.4.8-2.3.4-6.3 4.7-8.1 8.9-5.6 12.5 4 29 21.6 37.1 9.2 4.3 14.4 5.5 26.4 6.1 11.2.6 22.7-1.9 32.5-7 8.2-4.3 23-19.2 26.9-27.1 3.8-7.9 7.4-18.5 8.2-24.4.3-2.6.8-5.8 1-7.2.6-4.4 1.5-12.3 2.2-20 .8-9.2.7-43.9-.1-53.5-.4-3.9-.9-10.8-1.2-15.4-.3-4.6-.8-8.8-1.1-9.3-.4-.5-.8-3.9-1-7.5-.3-3.7-.8-7.1-1.1-7.6-.4-.6-.7-2.2-.9-3.6-.5-6.5-4-24.9-5.5-29.7-.5-1.7-1.2-4.2-1.4-5.5-1.3-6.8-3.9-16.5-4.8-17.7-.5-.6-.7-1.2-.3-1.2.3 0 .1-1.1-.4-2.4-.8-2.2-.3-2.8 5.8-6.7 3.7-2.4 11.4-7.8 17-12.1 5.7-4.3 10.5-7.8 10.7-7.8.1 0 2.4-2.1 5.1-4.8 2.7-2.6 7.5-7.1 10.7-10 3.1-2.9 5.7-5.7 5.7-6.1 0-.4 1.2-1.8 2.6-3.2 1.4-1.3 6.6-7.7 11.5-14.2 8.9-11.7 15.9-23.6 20-33.9 2.8-7 6.1-18.9 5.4-19.6-.2-.3.1-1.2.7-2 .8-.9 1.3-6.4 1.5-15.5.2-11.9-.1-15.4-1.8-21.7-2.2-7.8-5.6-15.2-9.3-20.4-3.3-4.6-12.6-13.3-18.4-17.2-4.3-2.9-16-8.8-16.9-8.5-.2 0-.8-.1-1.5-.3-13.9-4.4-16.7-4.8-34.8-5.1-12.4-.3-17.9.1-30.5 1.9-4.8.8-10.1 1.9-11 2.4-.5.3-1.6.7-2.5.7-4.5.5-13.6 3-22 6.1-5.2 1.9-9.9 3.6-10.4 3.7-.4.1-1.4-1.6-2.2-3.8-.8-2.2-1.7-4.7-2.1-5.5-.3-.8-.7-2.2-.8-3-.4-3-7.8-26.5-8.6-27.6-.5-.6-.7-1.3-.4-1.6.3-.3-.3-3.4-1.4-6.9-1-3.5-2.2-7.8-2.7-9.4-1-4.2-1.1-4.5-1.3-4.8-.2-.1-.5-1.3-.7-2.7-.3-1.4-.9-4.3-1.5-6.5s-1.3-4.9-1.5-6c-1-5.2-1.7-8.1-2.2-8.9-.3-.6-.7-1.9-.8-3-.1-1.2-.5-5.3-.8-9.1-.4-3.9-1-7.7-1.3-8.5-1.1-3.1-.3-38.9 1.1-49.8 2.5-19.6 8.8-34.3 19.1-44.8 5.1-5.2 7.1-6.5 13.1-8.4 8.7-2.8 14.4-2.2 20.2 2 3.8 2.7 4 3.1 3.2 6.4-.4 2-.5 3.6-.2 3.6s.1.5-.6 1.2c-1.7 1.7-1.5 9.4.4 13.4 2.8 5.8 9.6 11 16.1 12.3 6.7 1.3 10.6.5 16.4-3.4 8-5.3 10.2-16.5 5.2-27.5-3-6.8-5.2-9.2-12.6-14.1-5.8-3.8-18.3-8.6-19.4-7.5-.3.3-1.1.2-1.7-.4-1.3-1-12.9-3.1-16.1-2.8-1.1.1-3.6.3-5.5.5zm76 236.6c14.9 1.3 28.7 7.2 37.5 16.2 5 5.2 6.4 7.3 8.4 13.5 2.4 7.5 3 18.5 1.6 27.9-1.5 10.3-10.2 28.8-20.1 42.8-2.6 3.8-6 8.7-7.6 11-6.3 9.2-35.8 36.3-39.5 36.3-.7 0-1.3.4-1.3.9 0 .7-10.3 8.1-11.4 8.1-.3 0-3.6-9.8-7.5-21.8-3.9-11.9-12.8-39.3-19.8-60.7-7-21.5-12.8-39.5-12.9-40 0-.6-.3-1.7-.7-2.5-.3-.8-1.7-5-3-9.3-2.5-7.6-2.5-7.7-.6-8.8 1.1-.6 2.5-.8 3.2-.6.7.2 1.7-.2 2.2-.8.6-.7 4.6-2.4 9-3.9s8.7-3 9.5-3.3c.8-.3 2.8-.7 4.4-.9 1.6-.2 3.4-.9 4.1-1.4.7-.5 1.4-.8 1.6-.6.2.2 2.4 0 4.9-.5 2.5-.5 7.4-1.2 11-1.5 3.6-.4 6.6-.7 6.7-.8.3-.2 14.7.3 20.3.7zm-110.5 32.9c.2.7 3.2 10.5 6.5 21.8 3.4 11.3 7.5 24.7 9.2 29.7 1.6 5.1 2.7 9.7 2.3 10.3-.3.5-.2 1 .3 1s2.6 4.8 4.7 10.7c2.1 6 8.2 23.3 13.6 38.6 5.5 15.3 9.9 28 9.9 28.1 0 .2-1.9.9-4.2 1.6-2.4.8-4.7 1.7-5.3 2-4 2.7-29.4 9.7-38.5 10.6-3 .3-6.6.7-8 1-5.2 1.1-20.9.5-29.4-1.2-11.2-2.1-24.8-8.6-30.7-14.6-4-4.2-9.9-14.7-9.9-17.9 0-.9-.3-1.9-.7-2.3-1-1-.5-19.5.7-23.5.5-1.9.8-3.7.5-3.9-.3-.3-.1-1 .4-1.6.5-.6 1.4-2.9 2.1-5.1 1.7-5.4 8.6-19.1 10.8-21.4.9-1 1.8-2.3 2-3 .1-.7 2.2-4 4.5-7.3s4.7-7 5.4-8.2c2.1-3.7 19.3-21.4 27.7-28.5 8.1-6.9 23.4-18 24.9-18.1.4 0 .9.6 1.2 1.2z"/><path d="M547.8 438.7c-1.2 1.5-1.5 5.6-1.5 23.1 0 15.4-.4 22-1.3 23.7-2.8 5.2-2.1 5.3 36.9 5.4 39.9.1 39.7.1 36.6-5.9-1.3-2.6-1.6-6.7-1.6-24.2 0-13.9-.3-21.6-1.1-22.5-1.3-1.7-10.2-1.7-11.6-.1-.6.8-1 9.7-1 22.6 0 11.8-.3 21.6-.5 21.8-.7.7-12.8.7-13.4 0-.3-.3-.5-10.1-.5-21.8 0-12.1-.4-21.8-.9-22.5-1.6-1.8-10.7-1.5-11.8.5-.5.9-.9 10.8-.8 22 0 12.9-.4 20.7-1 21.3-1.1 1.1-11.9 1.7-12.8.7-.3-.2-.6-10.1-.6-21.9-.1-12.5-.6-21.9-1.1-22.7-1.6-1.9-10.2-1.5-12 .5zM427.5 521.4c-1.8 4.2-1.6 10.2.2 11.8 1.2.9 2.1.4 4.8-2.5 2.8-3.1 4.1-3.7 7.4-3.7 2.3 0 4.1.3 4.2.7 0 .5.1 9 .2 19.1.2 17.8-.3 22.9-2.2 21.8-.5-.3-1.5.1-2.2 1-2.5 3 1.2 4.2 12.4 4.1 5.6-.1 10.8-.6 11.5-1 2-1.3 1.4-2.7-1.9-4.1l-3.2-1.3.1-19.2c.1-10.5.4-19.6.8-20.2.9-1.5 9.7-.5 10.2 1.1.3.7 1.4 2.2 2.5 3.3l2 2 1.9-2.3c2.1-2.5 1.7-7.7-.8-11.8-1.4-2.2-1.7-2.2-24-2.2h-22.5l-1.4 3.4z"/></svg>